<svg width="15" height="16" viewBox="0 0 15 16" fill="none" xmlns="http://www.w3.org/2000/svg">
<g id="Group">
<path id="Vector" fill-rule="evenodd" clip-rule="evenodd" d="M10.4292 2.9339C10.6198 2.9339 10.8025 3.01117 10.9373 3.14873C11.0721 3.28628 11.1478 3.47284 11.1478 3.66737V5.13432H11.8663C12.4381 5.13432 12.9864 5.36615 13.3907 5.77881C13.7949 6.19147 14.0221 6.75115 14.0221 7.33474V13.2025C14.2126 13.2025 14.3954 13.2798 14.5302 13.4174C14.6649 13.5549 14.7406 13.7415 14.7406 13.936C14.7406 14.1305 14.6649 14.3171 14.5302 14.4546C14.3954 14.5922 14.2126 14.6695 14.0221 14.6695H1.08772C0.897138 14.6695 0.714365 14.5922 0.579606 14.4546C0.444847 14.3171 0.369141 14.1305 0.369141 13.936C0.369141 13.7415 0.444847 13.5549 0.579606 13.4174C0.714365 13.2798 0.897138 13.2025 1.08772 13.2025V7.33474C1.08772 6.75115 1.31484 6.19147 1.71911 5.77881C2.12339 5.36615 2.67171 5.13432 3.24344 5.13432H3.96202V3.66737C3.96202 3.47284 4.03772 3.28628 4.17248 3.14873C4.30724 3.01117 4.49001 2.9339 4.68059 2.9339C4.87117 2.9339 5.05394 3.01117 5.1887 3.14873C5.32346 3.28628 5.39917 3.47284 5.39917 3.66737V5.13432H6.83632V3.66737C6.83632 3.47284 6.91202 3.28628 7.04678 3.14873C7.18154 3.01117 7.36431 2.9339 7.55489 2.9339C7.74547 2.9339 7.92824 3.01117 8.063 3.14873C8.19776 3.28628 8.27347 3.47284 8.27347 3.66737V5.13432H9.71062V3.66737C9.71062 3.47284 9.78632 3.28628 9.92108 3.14873C10.0558 3.01117 10.2386 2.9339 10.4292 2.9339ZM11.6558 10.0537C11.4947 10.2182 11.3035 10.3486 11.093 10.4376C10.8826 10.5266 10.657 10.5724 10.4292 10.5724C10.2014 10.5724 9.97581 10.5266 9.76535 10.4376C9.55489 10.3486 9.36366 10.2182 9.20258 10.0537C9.17495 10.0255 9.14214 10.0031 9.10601 9.98777C9.06988 9.97247 9.03115 9.9646 8.99204 9.9646C8.95293 9.9646 8.9142 9.97247 8.87808 9.98777C8.84195 10.0031 8.80913 10.0255 8.7815 10.0537C8.62042 10.2182 8.42919 10.3486 8.21873 10.4376C8.00827 10.5266 7.7827 10.5724 7.55489 10.5724C7.32709 10.5724 7.10151 10.5266 6.89105 10.4376C6.68059 10.3486 6.48936 10.2182 6.32828 10.0537C6.30065 10.0255 6.26783 10.0031 6.23171 9.98777C6.19558 9.97247 6.15685 9.9646 6.11774 9.9646C6.07863 9.9646 6.0399 9.97247 6.00378 9.98777C5.96765 10.0031 5.93483 10.0255 5.9072 10.0537C5.74612 10.2182 5.55489 10.3486 5.34443 10.4376C5.13397 10.5266 4.9084 10.5724 4.68059 10.5724C4.45279 10.5724 4.22721 10.5266 4.01675 10.4376C3.80629 10.3486 3.61506 10.2182 3.45398 10.0537C3.42635 10.0255 3.39353 10.0031 3.35741 9.98777C3.32128 9.97247 3.28255 9.9646 3.24344 9.9646C3.20433 9.9646 3.1656 9.97247 3.12948 9.98777C3.09335 10.0031 3.06053 10.0255 3.0329 10.0537L2.52487 10.5723V13.2025H12.5849V10.5723L12.0769 10.0537C12.0493 10.0255 12.0164 10.0031 11.9803 9.98777C11.9442 9.97247 11.9055 9.9646 11.8663 9.9646C11.8272 9.9646 11.7885 9.97247 11.7524 9.98777C11.7162 10.0031 11.6834 10.0255 11.6558 10.0537ZM11.8663 6.60127H3.24344C3.06744 6.60129 2.89756 6.66725 2.76604 6.78663C2.63452 6.90601 2.55049 7.07051 2.5299 7.24892L2.52487 7.33474V8.65646C2.8464 8.50717 3.20491 8.46159 3.55249 8.52581C3.90008 8.59003 4.22019 8.761 4.47005 9.01586C4.49768 9.04412 4.5305 9.06653 4.56663 9.08183C4.60275 9.09712 4.64148 9.10499 4.68059 9.10499C4.7197 9.10499 4.75843 9.09712 4.79456 9.08183C4.83068 9.06653 4.8635 9.04412 4.89113 9.01586C5.05221 8.85144 5.24344 8.72101 5.4539 8.63202C5.66436 8.54303 5.88994 8.49723 6.11774 8.49723C6.34555 8.49723 6.57112 8.54303 6.78158 8.63202C6.99204 8.72101 7.18327 8.85144 7.34435 9.01586C7.37198 9.04412 7.4048 9.06653 7.44093 9.08183C7.47705 9.09712 7.51578 9.10499 7.55489 9.10499C7.594 9.10499 7.63273 9.09712 7.66886 9.08183C7.70499 9.06653 7.7378 9.04412 7.76543 9.01586C7.92651 8.85144 8.11774 8.72101 8.3282 8.63202C8.53866 8.54303 8.76424 8.49723 8.99204 8.49723C9.21985 8.49723 9.44542 8.54303 9.65588 8.63202C9.86634 8.72101 10.0576 8.85144 10.2186 9.01586C10.2463 9.04412 10.2791 9.06653 10.3152 9.08183C10.3514 9.09712 10.3901 9.10499 10.4292 9.10499C10.4683 9.10499 10.507 9.09712 10.5432 9.08183C10.5793 9.06653 10.6121 9.04412 10.6397 9.01586C10.874 8.77742 11.17 8.61213 11.493 8.53938C11.816 8.46662 12.1527 8.48943 12.4635 8.60512L12.5849 8.65646V7.33474C12.5849 7.15509 12.5203 6.98169 12.4033 6.84744C12.2864 6.71319 12.1252 6.62742 11.9504 6.6064L11.8663 6.60127ZM7.91418 0C7.73454 0.36747 7.82436 0.632988 7.96017 0.858165L8.03634 0.976987L8.07586 1.0342C8.17933 1.18309 8.27347 1.32025 8.27347 1.46695C8.27347 1.66148 8.19776 1.84804 8.063 1.98559C7.92824 2.12315 7.74547 2.20042 7.55489 2.20042C7.36431 2.20042 7.18154 2.12315 7.04678 1.98559C6.91202 1.84804 6.83632 1.66148 6.83632 1.46695C6.83632 1.06207 7.1956 0.366737 7.91418 0ZM5.03988 0C4.86024 0.36747 4.95006 0.632988 5.08587 0.858165L5.16204 0.976987L5.20156 1.0342C5.30503 1.18309 5.39917 1.32025 5.39917 1.46695C5.39917 1.66148 5.32346 1.84804 5.1887 1.98559C5.05394 2.12315 4.87117 2.20042 4.68059 2.20042C4.49001 2.20042 4.30724 2.12315 4.17248 1.98559C4.03772 1.84804 3.96202 1.66148 3.96202 1.46695C3.96202 1.06207 4.3213 0.366737 5.03988 0ZM10.7885 0C10.6088 0.36747 10.6987 0.632988 10.8345 0.858165L10.9106 0.976987L10.9502 1.0342C11.0536 1.18309 11.1478 1.32025 11.1478 1.46695C11.1478 1.66148 11.0721 1.84804 10.9373 1.98559C10.8025 2.12315 10.6198 2.20042 10.4292 2.20042C10.2386 2.20042 10.0558 2.12315 9.92108 1.98559C9.78632 1.84804 9.71062 1.66148 9.71062 1.46695C9.71062 1.06207 10.0699 0.366737 10.7885 0Z" fill="#1D1B20"/>
</g>
</svg>
