<svg width="24" height="24" viewBox="0 0 24 24" fill="none" xmlns="http://www.w3.org/2000/svg">
<g id="fluent:book-16-regular">
<path id="Vector" d="M9 4.5C8.60218 4.5 8.22064 4.65804 7.93934 4.93934C7.65804 5.22064 7.5 5.60218 7.5 6V7.5C7.5 7.89782 7.65804 8.27936 7.93934 8.56066C8.22064 8.84196 8.60218 9 9 9H15C15.3978 9 15.7794 8.84196 16.0607 8.56066C16.342 8.27936 16.5 7.89782 16.5 7.5V6C16.5 5.60218 16.342 5.22064 16.0607 4.93934C15.7794 4.65804 15.3978 4.5 15 4.5H9ZM9 6H15V7.5H9V6ZM16.5 1.5H7.5C6.70435 1.5 5.94129 1.81607 5.37868 2.37868C4.81607 2.94129 4.5 3.70435 4.5 4.5V19.5C4.5 20.2956 4.81607 21.0587 5.37868 21.6213C5.94129 22.1839 6.70435 22.5 7.5 22.5H18.75C18.9489 22.5 19.1397 22.421 19.2803 22.2803C19.421 22.1397 19.5 21.9489 19.5 21.75C19.5 21.5511 19.421 21.3603 19.2803 21.2197C19.1397 21.079 18.9489 21 18.75 21H7.5C7.10218 21 6.72064 20.842 6.43934 20.5607C6.15804 20.2794 6 19.8978 6 19.5V19.4955H18.75C18.9489 19.4955 19.1397 19.4165 19.2803 19.2758C19.421 19.1352 19.5 18.9444 19.5 18.7455V4.5C19.5 3.70435 19.1839 2.94129 18.6213 2.37868C18.0587 1.81607 17.2956 1.5 16.5 1.5ZM6 17.9955V4.5C6 4.10218 6.15804 3.72064 6.43934 3.43934C6.72064 3.15804 7.10218 3 7.5 3H16.5C16.8978 3 17.2794 3.15804 17.5607 3.43934C17.842 3.72064 18 4.10218 18 4.5V17.9955H6Z" fill="black"/>
</g>
</svg>
