<svg width="96" height="96" viewBox="0 0 96 96" fill="none" xmlns="http://www.w3.org/2000/svg">
<path d="M69 0.75C70.2859 0.75017 71.527 1.22227 72.488 2.07676C73.4489 2.93124 74.0628 4.10868 74.2132 5.38575L74.25 6V11.25H84.75C87.399 11.2492 89.9505 12.2496 91.8929 14.0509C93.8353 15.8521 95.0251 18.3209 95.2238 20.9625L95.25 21.75V84.75C95.2508 87.399 94.2504 89.9505 92.4491 91.8929C90.6479 93.8353 88.1791 95.0251 85.5375 95.2238L84.75 95.25H11.25C8.60097 95.2508 6.04953 94.2504 4.10712 92.4491C2.16472 90.6479 0.974928 88.1791 0.776251 85.5375L0.750001 84.75V21.75C0.749162 19.101 1.74963 16.5495 3.55086 14.6071C5.35208 12.6647 7.82093 11.4749 10.4625 11.2763L11.25 11.25H21.75V6C21.7515 4.66188 22.2639 3.37483 23.1825 2.40182C24.101 1.4288 25.3565 0.843266 26.6923 0.764846C28.0281 0.686427 29.3435 1.12104 30.3696 1.97989C31.3957 2.83874 32.0552 4.057 32.2132 5.38575L32.25 6V11.25H63.75V6C63.75 4.60761 64.3031 3.27226 65.2877 2.28769C66.2723 1.30312 67.6076 0.75 69 0.75ZM84.75 48H11.25V84.75H84.75V48ZM84.75 21.75H11.25V37.5H84.75V21.75Z" fill="#A0A0A0"/>
</svg>
