<svg width="24" height="24" viewBox="0 0 24 24" fill="none" xmlns="http://www.w3.org/2000/svg">
<g id="fluent:camera-add-20-filled">
<path id="Vector" d="M8.14083 3.39122C8.2907 3.09325 8.52042 2.84277 8.80436 2.66775C9.0883 2.49272 9.41528 2.40003 9.74883 2.40002H14.2656C14.6001 2.40004 14.9279 2.49323 15.2124 2.66916C15.4968 2.84509 15.7266 3.09678 15.876 3.39602L16.578 4.80002H18.606C19.4017 4.80002 20.1647 5.1161 20.7274 5.6787C21.29 6.24131 21.606 7.00437 21.606 7.80002V12.3132C20.9234 11.7469 20.1334 11.3245 19.2833 11.0715C18.4333 10.8185 17.5408 10.74 16.6596 10.8408C16.374 9.70588 15.6838 8.71428 14.7187 8.05233C13.7536 7.39038 12.5799 7.10364 11.4183 7.24599C10.2566 7.38834 9.18697 7.94998 8.41022 8.82538C7.63347 9.70079 7.20313 10.8297 7.20003 12C7.19965 13.0717 7.5579 14.1126 8.2177 14.957C8.8775 15.8015 9.80091 16.4008 10.8408 16.6596C10.6955 17.9461 10.9317 19.2468 11.52 20.4H5.40723C4.61158 20.4 3.84852 20.084 3.28591 19.5213C2.7233 18.9587 2.40723 18.1957 2.40723 17.4V7.80002C2.40723 7.00437 2.7233 6.24131 3.28591 5.6787C3.84852 5.1161 4.61158 4.80002 5.40723 4.80002H7.43523L8.14083 3.39122ZM12 8.40002C13.6716 8.40002 15.0768 9.54002 15.4824 11.0832C14.4445 11.3993 13.5003 11.9659 12.7331 12.7331C11.9659 13.5003 11.3993 14.4445 11.0832 15.4824C10.2382 15.2586 9.50343 14.7351 9.01592 14.0096C8.52842 13.284 8.32149 12.4058 8.43371 11.5389C8.54593 10.672 8.96964 9.87549 9.62583 9.29795C10.282 8.72041 11.1259 8.40126 12 8.40002ZM22.8 17.4C22.8 18.8322 22.2311 20.2057 21.2184 21.2184C20.2057 22.2311 18.8322 22.8 17.4 22.8C15.9679 22.8 14.5943 22.2311 13.5817 21.2184C12.569 20.2057 12 18.8322 12 17.4C12 15.9679 12.569 14.5943 13.5817 13.5816C14.5943 12.569 15.9679 12 17.4 12C18.8322 12 20.2057 12.569 21.2184 13.5816C22.2311 14.5943 22.8 15.9679 22.8 17.4ZM18 15C18 14.8409 17.9368 14.6883 17.8243 14.5758C17.7118 14.4632 17.5592 14.4 17.4 14.4C17.2409 14.4 17.0883 14.4632 16.9758 14.5758C16.8632 14.6883 16.8 14.8409 16.8 15V16.8H15C14.8409 16.8 14.6883 16.8632 14.5758 16.9758C14.4632 17.0883 14.4 17.2409 14.4 17.4C14.4 17.5592 14.4632 17.7118 14.5758 17.8243C14.6883 17.9368 14.8409 18 15 18H16.8V19.8C16.8 19.9592 16.8632 20.1118 16.9758 20.2243C17.0883 20.3368 17.2409 20.4 17.4 20.4C17.5592 20.4 17.7118 20.3368 17.8243 20.2243C17.9368 20.1118 18 19.9592 18 19.8V18H19.8C19.9592 18 20.1118 17.9368 20.2243 17.8243C20.3368 17.7118 20.4 17.5592 20.4 17.4C20.4 17.2409 20.3368 17.0883 20.2243 16.9758C20.1118 16.8632 19.9592 16.8 19.8 16.8H18V15Z" fill="#1C1B1F"/>
</g>
</svg>
