<svg width="16" height="16" viewBox="0 0 16 16" fill="none" xmlns="http://www.w3.org/2000/svg">
<g id="mdi:dna">
<path id="Vector" d="M3.06152 1.26367H4.32518V2.52733C4.32518 3.43717 4.75483 4.17641 5.51302 4.91565C6.05639 5.44006 6.783 5.94553 7.54119 6.44467L6.38495 7.19655C5.75943 6.77322 5.15288 6.31831 4.6411 5.81916C3.73758 4.94092 3.06152 3.85417 3.06152 2.52733V1.26367ZM11.9071 1.26367H13.1708V2.52733C13.1708 3.85417 12.4947 4.94092 11.5912 5.81916C10.7003 6.69109 9.56305 7.41137 8.45735 8.1127C7.35164 8.82035 6.27754 9.50904 5.51302 10.2483C4.75483 10.9875 4.32518 11.7268 4.32518 12.6366V13.9003H3.06152V12.6366C3.06152 11.3098 3.73758 10.223 4.6411 9.34477C5.53198 8.47285 6.66927 7.75256 7.77497 7.05123C8.88067 6.34358 9.95478 5.65489 10.7193 4.91565C11.4775 4.17641 11.9071 3.43717 11.9071 2.52733V1.26367ZM9.84737 7.96738C10.4729 8.39071 11.0794 8.84562 11.5912 9.34477C12.4947 10.223 13.1708 11.3098 13.1708 12.6366V13.9003H11.9071V12.6366C11.9071 11.7268 11.4775 10.9875 10.7193 10.2483C10.1759 9.72387 9.44932 9.2184 8.69112 8.71926L9.84737 7.96738ZM4.95701 1.8955H11.2753V2.52733L11.2374 2.84325H4.99492L4.95701 2.52733V1.8955ZM5.38666 3.79099H10.8457C10.694 4.00581 10.5171 4.22695 10.277 4.46073L9.95478 4.73873H6.2649L5.9553 4.46073C5.71521 4.22695 5.53829 4.00581 5.38666 3.79099ZM6.27754 10.4252H9.96742L10.277 10.7032C10.5171 10.937 10.694 11.1581 10.8457 11.3729H5.38666C5.53829 11.1581 5.71521 10.937 5.9553 10.7032L6.27754 10.4252ZM4.99492 12.3207H11.2374L11.2753 12.6366V13.2684H4.95701V12.6366L4.99492 12.3207Z" fill="#1D1B20"/>
</g>
</svg>
