<svg width="27" height="27" viewBox="0 0 27 27" fill="none" xmlns="http://www.w3.org/2000/svg">
<g id="fluent:image-copy-20-regular">
<path id="Vector" d="M11.4724 10.121C11.6528 10.1267 11.8325 10.0961 12.0009 10.031C12.1693 9.9659 12.3228 9.86763 12.4525 9.74202C12.5821 9.61641 12.6852 9.46602 12.7556 9.2998C12.826 9.13357 12.8623 8.95489 12.8623 8.77437C12.8623 8.59385 12.826 8.41518 12.7556 8.24895C12.6852 8.08272 12.5821 7.93234 12.4525 7.80673C12.3228 7.68112 12.1693 7.58285 12.0009 7.51774C11.8325 7.45264 11.6528 7.42204 11.4724 7.42775C11.1226 7.43883 10.7908 7.58556 10.5473 7.83689C10.3038 8.08822 10.1677 8.42443 10.1677 8.77437C10.1677 9.12432 10.3038 9.46053 10.5473 9.71186C10.7908 9.96319 11.1226 10.1099 11.4724 10.121ZM6.75005 8.10005C6.75005 7.02592 7.17674 5.99579 7.93627 5.23627C8.69579 4.47674 9.72592 4.05005 10.8001 4.05005H18.9001C19.9742 4.05005 21.0043 4.47674 21.7638 5.23627C22.5234 5.99579 22.9501 7.02592 22.9501 8.10005V16.2001C22.9501 17.2742 22.5234 18.3043 21.7638 19.0638C21.0043 19.8234 19.9742 20.2501 18.9001 20.2501H10.8001C9.72592 20.2501 8.69579 19.8234 7.93627 19.0638C7.17674 18.3043 6.75005 17.2742 6.75005 16.2001V8.10005ZM10.8001 5.40005C10.084 5.40005 9.39721 5.68451 8.89086 6.19086C8.38451 6.69721 8.10005 7.38397 8.10005 8.10005V16.2001C8.10005 16.6996 8.2364 17.1694 8.474 17.5717L13.2166 12.8278C13.6495 12.3949 14.2365 12.1518 14.8487 12.1518C15.4609 12.1518 16.0479 12.3949 16.4809 12.8278L21.2248 17.5717C21.4651 17.1694 21.6001 16.7009 21.6001 16.2001V8.10005C21.6001 7.38397 21.3156 6.69721 20.8092 6.19086C20.3029 5.68451 19.6161 5.40005 18.9001 5.40005H10.8001ZM20.2717 18.5261L15.5278 13.7822C15.348 13.6025 15.1042 13.5015 14.8501 13.5015C14.5959 13.5015 14.3521 13.6025 14.1724 13.7822L9.42845 18.5261C9.83075 18.7651 10.2992 18.9001 10.8001 18.9001H18.9001C19.3996 18.9001 19.8694 18.7637 20.2717 18.5261ZM16.2001 22.9501C16.7699 22.95 17.3332 22.8298 17.8534 22.5972C18.3736 22.3645 18.8388 22.0248 19.2187 21.6001H10.1251C8.8719 21.6001 7.67008 21.1022 6.78397 20.2161C5.89786 19.33 5.40005 18.1282 5.40005 16.8751V7.78145C4.57115 8.52395 4.05005 9.60125 4.05005 10.8001V16.8751C4.05005 18.4862 4.69009 20.0314 5.82938 21.1707C6.96866 22.31 8.51386 22.9501 10.1251 22.9501H16.2001Z" fill="#A0A0A0"/>
</g>
</svg>
