<svg width="114" height="104" viewBox="0 0 114 104" fill="none" xmlns="http://www.w3.org/2000/svg">
<g id="fontisto:paw">
<path id="Vector" d="M52.9753 23.295V23.4293C52.9746 26.0564 52.5218 28.6639 51.6367 31.1383L51.6888 30.978C50.8205 33.3858 49.3553 35.5353 47.4296 37.2267L47.4122 37.2397C45.5825 38.882 43.1486 39.883 40.4801 39.883H40.2715H40.2802C36.7607 39.8568 33.3912 38.4586 30.8925 35.9873C28.1651 33.4935 26.044 30.4124 24.6905 26.9783L24.634 26.8137C23.3248 23.5677 22.6336 20.107 22.5957 16.6087V16.457C22.5957 13.753 23.0694 11.1573 23.9343 8.74799L23.8821 8.90833C24.7505 6.50057 26.2157 4.35099 28.1414 2.65966L28.1587 2.64666C30.1228 0.884753 32.6886 -0.061027 35.3299 0.00332519H35.3169C38.8382 0.0202065 42.211 1.41986 44.7045 3.89899C47.4034 6.39377 49.5065 9.46054 50.8587 12.8733L50.9152 13.038C52.1712 16.0713 52.9144 19.5943 52.9535 23.282V23.295H52.9753ZM29.7451 56.003L29.7494 56.367C29.7546 59.6256 28.7447 62.8054 26.8592 65.467L26.894 65.415C26.0342 66.6499 24.8875 67.6591 23.5517 68.3563C22.216 69.0536 20.7308 69.4182 19.223 69.419L18.7928 69.4103H18.8145C15.2525 69.3696 11.829 68.0284 9.19212 65.6403L9.20516 65.6533C6.40028 63.259 4.13168 60.3034 2.54659 56.9784C0.961501 53.6533 0.0953491 50.0331 0.00434616 46.3527V46.318L0 45.9627C0 42.561 1.06915 39.4063 2.89019 36.8193L2.85542 36.8713C3.74967 35.5672 4.96324 34.5125 6.38104 33.8072C7.79883 33.1019 9.37384 32.7694 10.9567 32.8413H10.9349C14.4969 32.882 17.9204 34.2233 20.5573 36.6113L20.5443 36.5983C23.351 39.0089 25.6199 41.9793 27.2046 45.3178C28.7894 48.6563 29.6548 52.2889 29.7451 55.9813V56.0117V56.003ZM56.5217 54.1743C62.8665 54.5223 68.9427 56.8422 73.8977 60.8087L73.8368 60.761C79.9023 65.0524 85.1273 70.4162 89.2526 76.5863L89.3917 76.8073C93.1112 81.7914 95.2854 87.7523 95.6458 93.9543L95.6502 94.041L95.6589 94.418C95.6589 96.1687 95.2286 97.824 94.468 99.2757L94.4941 99.2193C93.7648 100.551 92.625 101.613 91.2432 102.248L91.1997 102.266C89.935 102.868 88.4616 103.34 86.9231 103.605L86.8188 103.618C85.2146 103.871 83.5926 103.995 81.9685 103.99H81.6425H81.6599C77.1822 103.692 72.7893 102.628 68.6736 100.844L68.9257 100.944C65.04 99.2535 60.8968 98.2267 56.6695 97.9063L56.5348 97.8977C51.741 98.253 47.2992 99.3277 43.1704 101.013L43.4615 100.909C39.1553 102.631 34.5982 103.646 29.9667 103.917L29.845 103.921C21.541 103.927 17.389 100.635 17.389 94.0453C17.5773 89.4281 18.9092 84.9292 21.2657 80.95L21.1919 81.08C23.7365 76.3134 26.9309 71.921 30.6839 68.028L30.6665 68.0453C34.3379 64.225 38.5347 60.9437 43.1312 58.2997L43.4007 58.1567C47.3272 55.7132 51.8269 54.3372 56.4522 54.1657H56.5044L56.5217 54.1743ZM72.7546 39.8873H72.5547C69.9915 39.8913 67.518 38.9462 65.6139 37.2353L65.6226 37.244C63.7082 35.5812 62.2486 33.4609 61.3807 31.082L61.346 30.978C60.4869 28.5536 60.0503 26.0006 60.0552 23.4293V23.2863V23.295C60.0943 19.59 60.8375 16.0713 62.1631 12.8473L62.0935 13.038C63.4436 9.56941 65.5623 6.44976 68.2911 3.91199L68.3085 3.89899C70.8017 1.4225 74.1726 0.0245259 77.6919 0.00765852H77.8961C80.5647 0.00765852 82.9985 1.01299 84.8369 2.65966L84.8282 2.65099C86.7319 4.31066 88.2009 6.41666 89.0701 8.81299L89.1049 8.91699C89.935 11.179 90.4131 13.792 90.4131 16.5133V16.6V16.5957C90.3792 20.1685 89.6639 23.7024 88.3052 27.0087L88.3747 26.818C87.0297 30.3088 84.8938 33.4424 82.1336 35.9743L82.1162 35.9917C79.6164 38.4571 76.249 39.8505 72.7329 39.8743H72.7285L72.7546 39.8873ZM102.091 32.85L102.491 32.8413C105.668 32.8413 108.471 34.4273 110.149 36.8497L110.171 36.88C112.038 39.547 113.035 42.7232 113.026 45.9757L113.022 46.3483V46.331C112.935 50.0088 112.074 53.6274 110.495 56.9523C108.916 60.2772 106.654 63.2342 103.856 65.6317L103.821 65.662C101.19 68.0438 97.7739 69.3806 94.2203 69.419H94.2116C92.6419 69.4906 91.0797 69.1644 89.6706 68.4711C88.2616 67.7777 87.0517 66.7397 86.1538 65.454L86.1321 65.4237C84.1855 62.67 83.1853 59.3619 83.281 55.9943V56.0117C83.3664 52.3211 84.2261 48.6893 85.8048 45.3502C87.3835 42.011 89.6462 39.0386 92.4471 36.6243L92.4818 36.594C95.1119 34.2227 98.5195 32.8899 102.065 32.8457H102.074L102.091 32.85Z" fill="#A0A0A0"/>
</g>
</svg>
