<svg width="22" height="22" viewBox="0 0 22 22" fill="none" xmlns="http://www.w3.org/2000/svg">
<g id="Group">
<path id="Vector" d="M11 21C16.523 21 21 16.523 21 11C21 5.477 16.523 1 11 1C5.477 1 1 5.477 1 11C1 16.523 5.477 21 11 21Z" stroke="black" stroke-width="2" stroke-linecap="round" stroke-linejoin="round"/>
<path id="Vector_2" d="M1 11H21" stroke="black" stroke-width="2" stroke-linecap="round" stroke-linejoin="round"/>
<path id="Vector_3" d="M11 21C13.209 21 15 16.523 15 11C15 5.477 13.209 1 11 1C8.791 1 7 5.477 7 11C7 16.523 8.791 21 11 21Z" stroke="black" stroke-width="2" stroke-linecap="round" stroke-linejoin="round"/>
<path id="Vector_4" d="M3.92896 4.07098C4.85654 5.0009 5.95873 5.73837 7.1722 6.24103C8.38567 6.74368 9.6865 7.0016 11 6.99998C12.3134 7.0016 13.6142 6.74368 14.8277 6.24103C16.0412 5.73837 17.1434 5.0009 18.071 4.07098M18.071 17.929C17.1434 16.9991 16.0412 16.2616 14.8277 15.7589C13.6142 15.2563 12.3134 14.9984 11 15C9.6865 14.9984 8.38567 15.2563 7.1722 15.7589C5.95873 16.2616 4.85654 16.9991 3.92896 17.929" stroke="black" stroke-width="2" stroke-linecap="round" stroke-linejoin="round"/>
</g>
</svg>
