<svg width="20" height="19" viewBox="0 0 20 19" fill="none" xmlns="http://www.w3.org/2000/svg">
<g id="lineicons:weight-machine-1">
<path id="Vector" d="M11.2395 5.20818C11.2953 5.15667 11.3401 5.09454 11.3712 5.02551C11.4023 4.95649 11.419 4.88197 11.4204 4.80641C11.4217 4.73086 11.4077 4.65581 11.3791 4.58574C11.3505 4.51567 11.3079 4.45202 11.2539 4.39858C11.1999 4.34515 11.1356 4.30302 11.0648 4.27472C10.994 4.24642 10.9181 4.23252 10.8418 4.23385C10.7654 4.23519 10.6901 4.25172 10.6204 4.28248C10.5506 4.31324 10.4878 4.35758 10.4358 4.41287L9.67757 5.16316C9.6217 5.21468 9.57689 5.27681 9.54581 5.34583C9.51473 5.41486 9.49802 5.48937 9.49667 5.56493C9.49532 5.64049 9.50937 5.71554 9.53797 5.78561C9.56657 5.85568 9.60914 5.91933 9.66313 5.97276C9.71713 6.0262 9.78145 6.06832 9.85226 6.09663C9.92307 6.12493 9.99891 6.13883 10.0753 6.13749C10.1516 6.13616 10.2269 6.11962 10.2967 6.08887C10.3664 6.05811 10.4292 6.01377 10.4813 5.95848L11.2395 5.20818Z" fill="black"/>
<path id="Vector_2" fill-rule="evenodd" clip-rule="evenodd" d="M5.15052 3.87269H6.90726C7.21541 3.30572 7.67301 2.83194 8.23142 2.50167C8.78984 2.17141 9.42824 1.99699 10.0788 1.99695C10.7296 1.99672 11.3683 2.17101 11.927 2.50129C12.4857 2.83157 12.9436 3.3055 13.2518 3.87269H15.0071C15.4595 3.87269 15.8934 4.05055 16.2133 4.36715C16.5333 4.68374 16.713 5.11313 16.713 5.56086V14.3769C16.713 14.8246 16.5333 15.254 16.2133 15.5706C15.8934 15.8872 15.4595 16.065 15.0071 16.065H5.15052C4.69808 16.065 4.26416 15.8872 3.94424 15.5706C3.62431 15.254 3.44458 14.8246 3.44458 14.3769V5.56086C3.44458 5.11313 3.62431 4.68374 3.94424 4.36715C4.26416 4.05055 4.69808 3.87269 5.15052 3.87269ZM6.47736 5.56086C6.47736 5.36929 6.49253 5.18171 6.52285 4.99814H5.15052C4.9997 4.99814 4.85507 5.05743 4.74843 5.16296C4.64178 5.26849 4.58187 5.41162 4.58187 5.56086V14.3769C4.58187 14.6875 4.83663 14.9396 5.15052 14.9396H15.0071C15.1579 14.9396 15.3025 14.8803 15.4092 14.7748C15.5158 14.6692 15.5757 14.5261 15.5757 14.3769V5.56086C15.5757 5.41162 15.5158 5.26849 15.4092 5.16296C15.3025 5.05743 15.1579 4.99814 15.0071 4.99814H13.6362C13.6656 5.18171 13.6802 5.36929 13.6802 5.56086C13.6802 6.02888 13.5871 6.49232 13.4061 6.92471C13.2251 7.35711 12.9598 7.74999 12.6254 8.08093C12.291 8.41187 11.8939 8.67438 11.457 8.85349C11.02 9.03259 10.5517 9.12477 10.0788 9.12477C9.60584 9.12477 9.13753 9.03259 8.70058 8.85349C8.26364 8.67438 7.86662 8.41187 7.53219 8.08093C7.19777 7.74999 6.93249 7.35711 6.7515 6.92471C6.57051 6.49232 6.47736 6.02888 6.47736 5.56086ZM10.0788 3.12239C9.42526 3.12239 8.7985 3.3793 8.33638 3.8366C7.87427 4.29391 7.61465 4.91414 7.61465 5.56086C7.61465 6.20758 7.87427 6.82782 8.33638 7.28512C8.7985 7.74242 9.42526 7.99933 10.0788 7.99933C10.7323 7.99933 11.3591 7.74242 11.8212 7.28512C12.2833 6.82782 12.5429 6.20758 12.5429 5.56086C12.5429 4.91414 12.2833 4.29391 11.8212 3.8366C11.3591 3.3793 10.7323 3.12239 10.0788 3.12239Z" fill="#1D1B20"/>
</g>
</svg>
