<svg width="17" height="20" viewBox="0 0 17 20" fill="none" xmlns="http://www.w3.org/2000/svg">
<g id="Group">
<path id="Vector" fill-rule="evenodd" clip-rule="evenodd" d="M4.19336 8.85417C4.19336 7.69937 4.6521 6.59187 5.46867 5.77531C6.28523 4.95874 7.39273 4.5 8.54753 4.5C9.70232 4.5 10.8098 4.95874 11.6264 5.77531C12.443 6.59187 12.9017 7.69937 12.9017 8.85417C12.9017 10.009 12.443 11.1165 11.6264 11.933C10.8098 12.7496 9.70232 13.2083 8.54753 13.2083C7.39273 13.2083 6.28523 12.7496 5.46867 11.933C4.6521 11.1165 4.19336 10.009 4.19336 8.85417ZM8.54753 5.875C7.7574 5.875 6.99964 6.18888 6.44094 6.74758C5.88224 7.30628 5.56836 8.06404 5.56836 8.85417C5.56836 9.64429 5.88224 10.4021 6.44094 10.9608C6.99964 11.5195 7.7574 11.8333 8.54753 11.8333C9.33765 11.8333 10.0954 11.5195 10.6541 10.9608C11.2128 10.4021 11.5267 9.64429 11.5267 8.85417C11.5267 8.06404 11.2128 7.30628 10.6541 6.74758C10.0954 6.18888 9.33765 5.875 8.54753 5.875Z" fill="#A0A0A0"/>
<path id="Vector_2" fill-rule="evenodd" clip-rule="evenodd" d="M0.777798 7.80646C0.934893 5.90618 1.80063 4.13441 3.20321 2.84271C4.60579 1.55101 6.44271 0.833792 8.34947 0.833374H8.74547C10.6522 0.833792 12.4891 1.55101 13.8917 2.84271C15.2943 4.13441 16.16 5.90618 16.3171 7.80646C16.4919 9.92334 15.8379 12.0254 14.493 13.6695L10.0994 19.042C9.91136 19.272 9.67459 19.4573 9.40619 19.5845C9.1378 19.7117 8.84449 19.7777 8.54747 19.7777C8.25044 19.7777 7.95713 19.7117 7.68874 19.5845C7.42034 19.4573 7.18358 19.272 6.99555 19.042L2.60196 13.6695C1.25706 12.0254 0.603052 9.92334 0.777798 7.80646ZM8.34947 2.20837C6.78803 2.20903 5.28388 2.79655 4.13537 3.85438C2.98687 4.91222 2.27791 6.36309 2.14913 7.91921C2.00364 9.68095 2.54788 11.4304 3.66713 12.7986L8.06071 18.1721C8.11978 18.2444 8.19417 18.3027 8.27851 18.3427C8.36286 18.3827 8.45504 18.4034 8.54838 18.4034C8.64173 18.4034 8.73391 18.3827 8.81825 18.3427C8.90259 18.3027 8.97699 18.2444 9.03605 18.1721L13.4296 12.7986C14.5482 11.4301 15.0918 9.6807 14.9458 7.91921C14.817 6.36293 14.1079 4.91193 12.9592 3.85407C11.8105 2.79622 10.3061 2.2088 8.74455 2.20837H8.34947Z" fill="#A0A0A0"/>
</g>
</svg>
