<svg width="16" height="16" viewBox="0 0 16 16" fill="none" xmlns="http://www.w3.org/2000/svg">
<g id="famicons:male-female">
<path id="Vector" d="M13.151 0.473877H10.9594C10.7865 0.473877 10.6208 0.542525 10.4986 0.664719C10.3764 0.786912 10.3078 0.952643 10.3078 1.12545C10.3078 1.29826 10.3764 1.46399 10.4986 1.58618C10.6208 1.70838 10.7865 1.77703 10.9594 1.77703H11.5781L10.4793 2.87552C10.0407 2.36362 9.4965 1.95273 8.88408 1.67109C8.27166 1.38944 7.60552 1.24372 6.93144 1.24392C4.35121 1.24392 2.25195 3.34317 2.25195 5.92341C2.25195 8.2827 4.00706 10.2392 6.27987 10.5573V11.6691H5.45059C5.27778 11.6691 5.11205 11.7378 4.98986 11.8599C4.86766 11.9821 4.79902 12.1479 4.79902 12.3207C4.79902 12.4935 4.86766 12.6592 4.98986 12.7814C5.11205 12.9036 5.27778 12.9723 5.45059 12.9723H6.27987V14.0385C6.27987 14.2113 6.34851 14.377 6.47071 14.4992C6.5929 14.6214 6.75863 14.69 6.93144 14.69C7.10425 14.69 7.26998 14.6214 7.39217 14.4992C7.51437 14.377 7.58301 14.2113 7.58301 14.0385V12.9723H8.41229C8.5851 12.9723 8.75083 12.9036 8.87302 12.7814C8.99522 12.6592 9.06386 12.4935 9.06386 12.3207C9.06386 12.1479 8.99522 11.9821 8.87302 11.8599C8.75083 11.7378 8.5851 11.6691 8.41229 11.6691H7.58301V10.5573C9.85582 10.2392 11.6109 8.2827 11.6109 5.92341C11.6113 5.26027 11.4699 4.60473 11.1963 4.00067L12.4994 2.69752V3.31711C12.4994 3.48992 12.5681 3.65565 12.6903 3.77784C12.8125 3.90004 12.9782 3.96868 13.151 3.96868C13.3238 3.96868 13.4895 3.90004 13.6117 3.77784C13.7339 3.65565 13.8026 3.48992 13.8026 3.31711V1.12545C13.8026 0.952643 13.7339 0.786912 13.6117 0.664719C13.4895 0.542525 13.3238 0.473877 13.151 0.473877ZM6.93144 9.29974C6.26366 9.29974 5.61088 9.10173 5.05565 8.73073C4.50041 8.35973 4.06766 7.83242 3.81211 7.21547C3.55656 6.59853 3.4897 5.91966 3.61998 5.26471C3.75025 4.60977 4.07182 4.00816 4.54401 3.53597C5.0162 3.06378 5.6178 2.74222 6.27275 2.61194C6.92769 2.48167 7.60656 2.54853 8.22351 2.80408C8.84045 3.05962 9.36777 3.49238 9.73876 4.04761C10.1098 4.60285 10.3078 5.25563 10.3078 5.92341C10.3068 6.81855 9.95071 7.67675 9.31775 8.30971C8.68478 8.94268 7.82659 9.29873 6.93144 9.29974Z" fill="#1D1B20"/>
</g>
</svg>
