<svg width="20" height="22" viewBox="0 0 20 22" fill="none" xmlns="http://www.w3.org/2000/svg">
<g id="Group">
<path id="Vector" d="M11 1H11.273C14.533 1 16.165 1 17.297 1.798C17.621 2.026 17.909 2.298 18.152 2.603C19 3.669 19 5.203 19 8.273V10.818C19 13.781 19 15.263 18.531 16.446C17.777 18.349 16.183 19.849 14.161 20.559C12.904 21 11.331 21 8.181 21C6.383 21 5.483 21 4.765 20.748C3.61 20.342 2.699 19.485 2.268 18.398C2 17.722 2 16.875 2 15.182V11" stroke="#1D1B20" stroke-width="1.5" stroke-linecap="round" stroke-linejoin="round"/>
<path id="Vector_2" d="M19 11C19 11.884 18.6488 12.7317 18.0238 13.3568C17.3987 13.9818 16.551 14.333 15.667 14.333C15.001 14.333 14.216 14.217 13.569 14.39C13.2864 14.466 13.0288 14.6149 12.8218 14.8218C12.6149 15.0288 12.466 15.2864 12.39 15.569C12.217 16.216 12.333 17.001 12.333 17.667C12.333 18.1047 12.2468 18.5381 12.0793 18.9425C11.9118 19.3469 11.6663 19.7143 11.3568 20.0238C11.0473 20.3333 10.6799 20.5788 10.2755 20.7463C9.87111 20.9138 9.4377 21 9 21M9 5H1M5 1V9" stroke="#1D1B20" stroke-width="1.5" stroke-linecap="round" stroke-linejoin="round"/>
</g>
</svg>
