<svg width="43" height="43" viewBox="0 0 43 43" fill="none" xmlns="http://www.w3.org/2000/svg">
<path d="M0 21.5C0 15.7978 2.26517 10.3292 6.2972 6.2972C10.3292 2.26517 15.7978 0 21.5 0C27.2022 0 32.6708 2.26517 36.7028 6.2972C40.7348 10.3292 43 15.7978 43 21.5C43 27.2022 40.7348 32.6708 36.7028 36.7028C32.6708 40.7348 27.2022 43 21.5 43C15.7978 43 10.3292 40.7348 6.2972 36.7028C2.26517 32.6708 0 27.2022 0 21.5ZM18.8125 24.1875H24.1875V10.75H18.8125V24.1875ZM24.1875 29.5625C24.1875 28.8497 23.9044 28.1662 23.4003 27.6622C22.8963 27.1581 22.2128 26.875 21.5 26.875C20.7872 26.875 20.1037 27.1581 19.5997 27.6622C19.0956 28.1662 18.8125 28.8497 18.8125 29.5625C18.8125 30.2753 19.0956 30.9588 19.5997 31.4628C20.1037 31.9669 20.7872 32.25 21.5 32.25C22.2128 32.25 22.8963 31.9669 23.4003 31.4628C23.9044 30.9588 24.1875 30.2753 24.1875 29.5625Z" fill="#99DDCC"/>
</svg>
